<?xml version="1.0" encoding="UTF-8"?>
<svg id="katman_1" xmlns="http://www.w3.org/2000/svg" version="1.1" viewBox="0 0 595.28 841.89">
  <!-- Generator: Adobe Illustrator 29.8.3, SVG Export Plug-In . SVG Version: 2.1.1 Build 3)  -->
  <defs>
    <style>
      .st0, .st1 {
        fill: #c49f74;
      }

      .st1 {
        fill-rule: evenodd;
      }
    </style>
  </defs>
  <path class="st0" d="M113.21,470.15c-4.95-4.95-7.68-11.54-7.68-18.55v-60.86c0-7.01,2.73-13.59,7.68-18.55,4.95-4.95,11.54-7.68,18.55-7.68h46.82c7.01,0,13.59,2.73,18.55,7.68,4.95,4.95,7.68,11.54,7.68,18.55v60.86c0,7.01-2.73,13.59-7.68,18.55-4.95,4.95-11.54,7.68-18.55,7.68h-46.82c-7.01,0-13.59-2.73-18.55-7.68ZM131.76,367.43c-12.85,0-23.31,10.46-23.31,23.31v60.86c0,12.85,10.46,23.31,23.31,23.31h46.82c12.85,0,23.31-10.46,23.31-23.31v-60.86c0-12.85-10.46-23.31-23.31-23.31h-46.82Z"/>
  <path class="st0" d="M103.15,452.48v-62.84c0-15.21,12.38-27.59,27.59-27.59h48.85c15.21,0,27.59,12.38,27.59,27.59v62.84c0,15.21-12.38,27.59-27.59,27.59h-48.85c-15.21,0-27.59-12.38-27.59-27.59ZM130.74,362.47c-14.98,0-27.17,12.19-27.17,27.17v62.84c0,14.98,12.19,27.17,27.17,27.17h48.85c14.98,0,27.17-12.19,27.17-27.17v-62.84c0-14.98-12.19-27.17-27.17-27.17h-48.85Z"/>
  <path class="st0" d="M486.83,440.84v-18.68c0-4.68-1.24-8.27-3.72-10.77-2.59-2.54-6.04-3.75-10.35-3.63-5.07,0-9.24,1.9-12.51,5.7-.14-3.07-.58-4.97-1.31-5.7l-14.87,2.37v1.48c3.97-.7,5.96,1.37,5.96,6.21v23.03c0,5.92-1.99,8.91-5.96,9v1.44h22.1v-1.44c-3.94-.08-5.92-3.08-5.92-9v-18.94c0-1.52-1.2-2.07-2.75-.83-.88.7-1.59-.26-.82-1.43,1.24-1.87,2.96-4.61,7.81-7.17,1.17-.75,2.47-1.13,3.91-1.13,2.56-.03,4.61.9,6.13,2.79,1.55,1.86,2.31,4.07,2.28,6.63v20.07c0,5.92-1.94,8.91-5.83,9v1.44h21.68v-1.44c-3.89-.08-5.83-3.08-5.83-9Z"/>
  <path class="st0" d="M343.08,441.68v-33l-16.14.04v1.44c3.94.08,5.91,3.08,5.91,9l-.04,18.99c.03,1.47,1.21,1.99,2.74.77.88-.7,1.59.26.82,1.43-1.26,1.91-3.27,5.22-8.37,7.47-1.02.52-2.13.79-3.35.79-2.51,0-4.54-.93-6.08-2.79-1.55-1.92-2.32-4.13-2.32-6.63v-30.51h-15.84v1.44c3.89.08,5.83,3.08,5.83,9v18.68c.03,4.65,1.28,8.24,3.76,10.77,2.59,2.51,6.03,3.72,10.31,3.63,5.13-.03,9.3-1.93,12.51-5.7.14,3.01.58,4.92,1.31,5.7l14.91-2.58v-1.48c-3.97.68-5.96-1.48-5.96-6.46Z"/>
  <path class="st0" d="M385.96,443.84c-2.45,2.48-5.48,3.76-9.08,3.84-4.17.11-7.65-1.76-10.44-5.62-1.16-1.61-2.03-3.36-2.64-5.24-.4-1.15-.86-2.73-.92-4.12-.07-1.43-1.73-2.87-3.68-3.23-1.11-.2-1.23-1.38.17-1.38,1.77,0,3.45,0,6.35.03h27.65c-.28-6.25-2.2-11.25-5.75-15-3.49-3.75-8.32-5.62-14.49-5.62s-11.27,2.21-15.21,6.63c-3.89,4.31-5.83,9.68-5.83,16.1s1.94,11.38,5.83,15.55c3.97,4.23,8.77,6.34,14.41,6.34,5.1,0,9.49-1.59,13.18-4.77,3.72-3.21,6.15-7.65,7.31-13.31h-1.35c-1.21,4.06-3.04,7.32-5.49,9.8ZM363.65,420.98c.37-1.77.91-3.53,1.65-5.28.73-1.8,1.75-3.28,3.04-4.44,1.35-1.18,2.87-1.8,4.56-1.86,2.22-.08,4.13.93,5.7,3.04,1.61,2.09,2.66,4.35,3.17,6.8.56,2.42.8,4.69.72,6.8h-19.56c.11-1.66.35-3.35.72-5.07Z"/>
  <path class="st0" d="M434.55,443.84c-2.45,2.48-5.48,3.76-9.08,3.84-4.17.11-7.65-1.76-10.44-5.62-1.16-1.61-2.03-3.36-2.64-5.24-.4-1.15-.86-2.73-.92-4.12-.07-1.43-1.73-2.87-3.68-3.23-1.11-.2-1.23-1.38.17-1.38,1.77,0,3.45,0,6.35.03h27.65c-.28-6.25-2.2-11.25-5.75-15-3.49-3.75-8.32-5.62-14.49-5.62s-11.27,2.21-15.21,6.63c-3.89,4.31-5.83,9.68-5.83,16.1s1.94,11.38,5.83,15.55c3.97,4.23,8.77,6.34,14.41,6.34,5.1,0,9.49-1.59,13.18-4.77,3.72-3.21,6.15-7.65,7.31-13.31h-1.35c-1.21,4.06-3.04,7.32-5.49,9.8ZM412.24,420.98c.37-1.77.91-3.53,1.65-5.28.73-1.8,1.75-3.28,3.04-4.44,1.35-1.18,2.87-1.8,4.56-1.86,2.22-.08,4.13.93,5.7,3.04,1.61,2.09,2.66,4.35,3.17,6.8.56,2.42.8,4.69.72,6.8h-19.56c.11-1.66.35-3.35.72-5.07Z"/>
  <path class="st0" d="M259.63,391.29v-1.46c-16.99,1.7-30.28,16.17-30.28,33.71,0,18.81,15.14,34.11,33.95,34.11,6.07,0,11.83-1.5,16.76-4.38l-2.76-3.43c-3.9,3.98-8.71,6.43-14,6.43-12.85,0-23.3-14.59-23.3-32.73,0-16.28,8.52-29.73,19.64-32.25h0ZM295.2,448.11c-.79-2.09-2.05-3.79-3.79-5.28l.12-.12c3.67-5.52,5.84-12.07,5.84-19.16,0-17.55-13.29-32.02-30.4-33.71v1.46c11.12,2.52,19.75,15.97,19.75,32.25,0,5.64-1.03,10.8-2.76,15.38,0,0-.12.12-.12.24l-.35-.12c-8.95-2.05-21.88.35-28.43,11.83,7.1-6.07,16.96-8.4,23.3-3.59.99.83,3.19,3.71,3.75,4.97,4.69,9.98,16.44,4.57,13.09-4.14h0Z"/>
  <g>
    <path class="st1" d="M165.45,452.52c3.4-1.09,6.87-1.93,10.35-2.63,8.95-1.78,18.1-2.52,27.18-2.52v4.89c-8.98,0-18.04.67-26.9,2.35-3.61.68-7.2,1.52-10.72,2.67-.82.27-1.64.55-2.46.85l-.46.17.46.17c.82.3,1.63.58,2.46.85,3.52,1.14,7.11,1.99,10.72,2.67,7.45,1.41,15.03,2.1,22.6,2.28-.71.75-1.45,1.48-2.11,2.28-.68.81-1.28,1.75-2.08,2.46-6.26-.34-12.52-1.08-18.68-2.32-3.48-.7-6.95-1.53-10.35-2.62-1.67-.54-10.05-3.09-10.05-5.78s8.38-5.25,10.05-5.78Z"/>
    <path class="st1" d="M150.59,444.43l4.15,10.53.15-.08c6.43-3.37,13.81-5.48,20.78-6.88,8.98-1.8,18.22-2.58,27.34-2.58v-2.22c-.47-.67-1.01-1.35-1.6-2.02-.59-.65-1.18-1.25-1.77-1.77.59-.52,1.18-1.11,1.77-1.77.59-.67,1.13-1.35,1.6-2.02v-1.79c-9.63,0-19.35.88-28.83,2.82-7.95,1.63-16.01,4.06-23.43,7.69l-.15.07ZM186.91,440.54c.53-.56,1.07-1.19,1.62-1.89.52-.71,1.05-1.43,1.47-2.13.45.64,1,1.29,1.6,1.93.55.62,1.15,1.17,1.72,1.66-.55.56-1.07,1.19-1.62,1.89-.55.71-1.05,1.43-1.47,2.13-.45-.64-1-1.29-1.6-1.93-.55-.62-1.15-1.17-1.72-1.66ZM174.78,442.32c.45-.56.87-1.2,1.29-1.89.44-.71.81-1.42,1.16-2.11.48.57.97,1.15,1.55,1.7.57.54,1.15,1.02,1.69,1.44-.45.56-.87,1.2-1.29,1.89-.44.71-.81,1.42-1.16,2.11-.45-.57-.98-1.15-1.55-1.7-.57-.54-1.14-1.02-1.69-1.44ZM164.18,445.2c.32-.58.63-1.21.94-1.91.31-.71.56-1.41.77-2.1.48.48,1,.96,1.56,1.42.55.45,1.07.84,1.61,1.17-.32.57-.63,1.21-.94,1.91-.33.71-.59,1.42-.8,2.1-.45-.49-.98-.97-1.53-1.42-.55-.45-1.09-.84-1.61-1.16ZM155.16,448.15c.24-.54.45-1.14.67-1.79.23-.66.38-1.33.53-1.97.45.47.93.94,1.43,1.39.5.44,1.02.82,1.48,1.15-.24.54-.47,1.14-.7,1.79-.2.67-.38,1.33-.53,1.98-.43-.47-.9-.94-1.4-1.39-.52-.44-1.02-.82-1.48-1.15Z"/>
    <path class="st1" d="M147.82,437.99l.07.17c.66,1.49,1.29,3,1.88,4.53l.06.16.26-.13c7.56-3.69,15.68-6.15,23.78-7.81,9.59-1.97,19.37-2.85,29.11-2.85v-5.36c-10.04,0-20.1.91-29.97,2.94-8.48,1.74-16.91,4.3-24.83,8.17l-.37.18Z"/>
    <path class="st1" d="M128.34,406.22c4.99,9.65,14.88,20.75,18.76,30.17l.45-.22c8.03-3.92,16.57-6.51,25.18-8.28,9.97-2.05,20.12-2.97,30.26-2.97v-25.36c-.65-1-1.04-3.72-1.04-5.23s.4-2.21,1.04-3.21l-.78-9.55h0c-1.52,4.12-5.07,3.27-6.01,8.36-.66,3.57.23,6.16,2.06,9.04.94,1.48.37,1.73-.87.82-2.56-1.93-6.24-1.65-8.1,1.33-2.07,3.36-.62,6.78,2.22,8.75,1.3.9,2.24,2.12,2.57,3.86.73-1.41.75-2.75.2-4.2-1.04-2.71,1.78-3.15,3.33-1.39.85.97,1.5,2,1.79,3.35-1.28-1.67-4.08-1.32-3.77,1.12.24,1.84,2.31,2.07,3.38.87.13,1.83-.26,3.17-.98,4.16-3.1,4.28-10.77,3.24-12.59-2.03-.43-1.24-.43-2.06-.43-2.06,5.28,1.24,3.84-6.54-.18-3.95.85-1.45.21-3.05-1.06-3.7-.68-.35-1.01-.69-1.35-1.52-.11,1.07-.24,1.28-.87,1.94-1.15,1.22-1.13,3.48.51,4.21-5.31-2.12-3.32,7.1.57,3.16,0,0,.12.84.09,1.89-.14,6.8-10.43,8.39-12.82,2.65-.4-.99-.99-2.53-.39-3.5,1.44,1.27,2.91-.21,2.85-1.56-.11-2.6-3.05-2.27-3.79-.47-.41-3.46,2.39-6.56,4.08-3.64,1.08,1.87-.15,4.14,2.77,4.84-.99-1.86-.27-3.76,1-5.09,2.12-2.22,1.79-6.08.04-8.49-2.37-3.25-8.63-3.17-9.8,1.29-.68,2.61-1.75,1.64-1.18-.62,1.95-7.76-1.05-10.75-6.79-12.17-.58-.15-.98-.59-1.32-1.16-.02.74-.22,1.47-.6,2.07-3.3,5.23-2.42,10.1,2.57,13.83,2.08,1.54.67,1.76-.79.97-4.02-2.18-7.91,2.61-6.14,7.87.78,2.34,2.09,3.08,4.14,3.46,1.07.2,2.25,1.1,2.04,2.47,1.01-1.24,1.01-2.3.36-3.65-1.78-3.64,2.07-3.83,4.04-.71-2.12-.4-2.85,1.02-2.55,2.27.38,1.62,2.77,2.43,3.51-.07,0,0,.48.75.84,1.81,2.37,6.72-7.22,10.11-9.3,3.69,1.84.42,2.43-1.26,1.95-2.19-.4-.73-1.73-1.3-2.66.41.04-.1.56-1.66-.57-2.85-.97-1.03-2.13-.63-3.16-1.75.41,1.32-.35,2.29-.21,3.54.12,1.04.74,1.79,1.68,2.15-1.47-.26-2.27,1.07-1.92,2.02.37,1,1.58,1.37,2.63-.12,1.86,5.53-4.87,9.35-8.18,4.81,1.48-.04,1.96-1.67,1.14-2.7-.83-1.04-2.46-.59-2.48,1.31-2.03-2.83.89-5.66,2.67-3.46.91,1.13,1.41,1.46,2.81,1.09-2.6-1.21.72-5.3-1.37-9.08-2.13-3.82-6.91-2.78-8.26,1.25-.27.82-1.15,1.24-1.18-.14,1.19-5.42-.62-9.21-6.17-9.27-2.39-.03-5.13-2.92-3.86-.47Z"/>
  </g>
  <g>
    <path class="st0" d="M317.13,479.65l-4.51-13.37h1.45l4.22,12.59h-.73l4.36-12.59h1.3l4.3,12.59h-.69l4.26-12.59h1.36l-4.51,13.37h-1.49l-4.11-11.94h.38l-4.13,11.94h-1.47Z"/>
    <path class="st0" d="M336.81,479.74c-.75,0-1.4-.12-1.96-.37-.55-.25-.98-.59-1.27-1.03-.29-.44-.44-.95-.44-1.52,0-.52.12-1,.37-1.42.25-.43.66-.77,1.22-1.03.57-.26,1.33-.39,2.28-.39h3.46v1.01h-3.42c-.97,0-1.64.17-2.02.52-.38.34-.56.77-.56,1.28,0,.57.22,1.03.67,1.38.45.34,1.07.52,1.87.52s1.42-.18,1.98-.53c.55-.35.96-.86,1.21-1.52l.31.94c-.25.66-.7,1.19-1.33,1.59-.63.4-1.42.59-2.38.59ZM340.27,479.65v-2.22l-.06-.36v-3.71c0-.85-.24-1.51-.72-1.97s-1.19-.69-2.13-.69c-.65,0-1.27.11-1.85.32-.59.22-1.08.5-1.49.86l-.61-1.01c.51-.43,1.12-.77,1.83-1,.71-.24,1.46-.35,2.25-.35,1.3,0,2.3.32,3.01.96s1.06,1.62,1.06,2.93v6.23h-1.3Z"/>
    <path class="st0" d="M343.69,470.74v-1.13h6.21v1.13h-6.21ZM345.49,479.65v-11.29c0-.89.26-1.61.78-2.16s1.27-.82,2.25-.82c.38,0,.75.05,1.11.15.36.1.66.26.9.48l-.46,1.01c-.19-.17-.41-.29-.67-.37s-.53-.12-.82-.12c-.57,0-1.01.16-1.32.48-.31.32-.46.79-.46,1.41v1.53l.04.63v9.07h-1.36Z"/>
    <path class="st0" d="M350.17,470.74v-1.13h6.21v1.13h-6.21ZM351.96,479.65v-11.29c0-.89.26-1.61.78-2.16s1.27-.82,2.25-.82c.38,0,.75.05,1.11.15.36.1.66.26.9.48l-.46,1.01c-.19-.17-.41-.29-.67-.37s-.53-.12-.82-.12c-.57,0-1.01.16-1.32.48-.31.32-.46.79-.46,1.41v1.53l.04.63v9.07h-1.36ZM358.21,479.65v-14.18h1.36v14.18h-1.36Z"/>
    <path class="st0" d="M367.63,479.74c-1.04,0-1.96-.22-2.75-.66-.79-.44-1.41-1.04-1.85-1.82-.45-.77-.67-1.65-.67-2.65s.21-1.87.64-2.64c.43-.76,1.01-1.37,1.76-1.81.75-.44,1.58-.66,2.51-.66s1.78.21,2.51.64c.73.43,1.31,1.03,1.73,1.8.42.77.63,1.66.63,2.67,0,.06,0,.13,0,.2,0,.07-.01.14-.01.22h-8.73v-1.01h8.01l-.54.4c0-.73-.16-1.37-.47-1.94-.31-.57-.74-1.01-1.27-1.33-.53-.32-1.15-.48-1.85-.48s-1.31.16-1.85.48-.97.76-1.28,1.34c-.31.57-.46,1.23-.46,1.97v.21c0,.76.17,1.44.51,2.02s.81,1.03,1.41,1.36c.6.32,1.3.49,2.07.49.61,0,1.18-.11,1.71-.32s.98-.55,1.37-.99l.76.88c-.45.54-1,.94-1.67,1.22-.67.28-1.4.42-2.21.42Z"/>
    <path class="st0" d="M383.45,479.76c-.87,0-1.64-.14-2.31-.43-.68-.29-1.21-.69-1.6-1.19s-.58-1.1-.58-1.78c0-.57.13-1.1.38-1.58.25-.48.67-.95,1.23-1.41.57-.46,1.32-.95,2.26-1.46.8-.45,1.43-.83,1.88-1.16.45-.32.77-.64.96-.94.19-.3.29-.62.29-.97,0-.5-.17-.9-.51-1.2-.34-.31-.82-.46-1.44-.46-.67,0-1.2.17-1.57.51-.37.34-.55.77-.55,1.31,0,.27.04.52.12.76s.24.51.48.8c.24.29.56.66.98,1.11l7.07,7.28-.78.9-7.38-7.59c-.45-.47-.8-.88-1.06-1.23-.26-.35-.44-.68-.54-1-.1-.32-.15-.66-.15-1.01,0-.57.14-1.07.41-1.5.27-.43.67-.76,1.18-.99.51-.24,1.11-.35,1.8-.35.62,0,1.17.1,1.63.31.46.21.83.51,1.09.91.26.4.39.87.39,1.43,0,.48-.12.94-.35,1.36s-.62.83-1.16,1.23c-.53.4-1.26.85-2.18,1.35-.8.44-1.44.85-1.9,1.22-.46.37-.79.73-.98,1.08-.19.35-.29.74-.29,1.16,0,.48.14.91.41,1.27.27.36.66.64,1.15.84.49.2,1.05.3,1.69.3.89,0,1.69-.18,2.39-.55.7-.37,1.29-.93,1.77-1.68.48-.75.82-1.69,1.04-2.83l1.09.34c-.24,1.27-.66,2.34-1.24,3.21s-1.31,1.52-2.18,1.97-1.85.67-2.94.67Z"/>
    <path class="st0" d="M403.79,479.76c-1.01,0-1.94-.17-2.79-.51s-1.59-.81-2.22-1.42c-.62-.61-1.11-1.33-1.46-2.16-.35-.83-.53-1.73-.53-2.71s.18-1.88.53-2.71c.35-.83.84-1.55,1.47-2.16.63-.61,1.37-1.09,2.23-1.42.85-.34,1.78-.51,2.79-.51s1.88.16,2.73.49c.85.32,1.57.81,2.16,1.46l-.9.9c-.55-.56-1.15-.96-1.82-1.21-.66-.25-1.38-.37-2.14-.37-.8,0-1.55.14-2.24.41s-1.29.66-1.8,1.17c-.51.5-.91,1.09-1.19,1.76-.29.67-.43,1.4-.43,2.21s.14,1.54.43,2.21c.29.67.68,1.25,1.19,1.76.51.5,1.11.89,1.8,1.16.69.28,1.43.41,2.24.41s1.48-.13,2.14-.38c.66-.26,1.27-.66,1.82-1.22l.9.9c-.59.65-1.31,1.14-2.16,1.47-.85.33-1.77.5-2.75.5Z"/>
    <path class="st0" d="M416.56,469.52c.81,0,1.53.16,2.15.47.62.31,1.1.79,1.45,1.42s.53,1.44.53,2.41v5.83h-1.36v-5.69c0-1.06-.26-1.86-.79-2.4s-1.27-.81-2.23-.81c-.71,0-1.33.14-1.86.43-.53.29-.94.7-1.22,1.24-.29.54-.43,1.19-.43,1.96v5.27h-1.36v-14.18h1.36v6.9l-.27-.52c.32-.73.83-1.3,1.53-1.71s1.53-.62,2.5-.62Z"/>
    <path class="st0" d="M428.44,479.74c-.97,0-1.84-.22-2.61-.66-.77-.44-1.38-1.04-1.82-1.82-.45-.77-.67-1.65-.67-2.65s.22-1.89.67-2.66c.45-.76,1.05-1.36,1.81-1.8.76-.43,1.64-.65,2.62-.65s1.88.22,2.65.65c.77.43,1.38,1.03,1.82,1.8.44.76.66,1.65.66,2.66s-.22,1.88-.66,2.65c-.44.77-1.05,1.38-1.82,1.82-.78.44-1.66.66-2.64.66ZM428.44,478.54c.73,0,1.37-.16,1.93-.49.56-.32,1-.79,1.33-1.38.32-.59.49-1.28.49-2.06s-.16-1.48-.49-2.06-.77-1.04-1.33-1.37c-.56-.32-1.2-.49-1.91-.49s-1.35.16-1.91.49c-.56.32-1.01.78-1.34,1.37-.33.59-.5,1.27-.5,2.06s.17,1.46.5,2.06c.33.59.78,1.05,1.34,1.38.56.32,1.19.49,1.89.49Z"/>
    <path class="st0" d="M440.5,479.74c-.99,0-1.88-.22-2.67-.66-.78-.44-1.4-1.04-1.84-1.82-.45-.77-.67-1.65-.67-2.65s.22-1.89.67-2.66c.45-.76,1.06-1.36,1.84-1.8.78-.43,1.67-.65,2.67-.65.85,0,1.62.16,2.31.49.69.33,1.23.83,1.62,1.49l-1.01.69c-.34-.51-.77-.88-1.28-1.13-.51-.24-1.06-.36-1.66-.36-.71,0-1.36.16-1.93.49s-1.03.78-1.36,1.37c-.33.59-.5,1.27-.5,2.06s.17,1.48.5,2.06c.33.59.78,1.04,1.36,1.37s1.22.49,1.93.49c.6,0,1.15-.12,1.66-.36.51-.24.94-.61,1.28-1.11l1.01.69c-.39.65-.94,1.14-1.62,1.48-.69.34-1.46.51-2.31.51Z"/>
    <path class="st0" d="M451,479.74c-.97,0-1.84-.22-2.61-.66-.77-.44-1.38-1.04-1.82-1.82-.45-.77-.67-1.65-.67-2.65s.22-1.89.67-2.66c.45-.76,1.05-1.36,1.81-1.8.76-.43,1.64-.65,2.62-.65s1.88.22,2.65.65c.77.43,1.38,1.03,1.82,1.8.44.76.66,1.65.66,2.66s-.22,1.88-.66,2.65c-.44.77-1.05,1.38-1.82,1.82-.78.44-1.66.66-2.64.66ZM451,478.54c.73,0,1.37-.16,1.93-.49.56-.32,1-.79,1.33-1.38.32-.59.49-1.28.49-2.06s-.16-1.48-.49-2.06-.77-1.04-1.33-1.37c-.56-.32-1.2-.49-1.91-.49s-1.35.16-1.91.49c-.56.32-1.01.78-1.34,1.37-.33.59-.5,1.27-.5,2.06s.17,1.46.5,2.06c.33.59.78,1.05,1.34,1.38.56.32,1.19.49,1.89.49Z"/>
    <path class="st0" d="M458.89,479.65v-14.18h1.36v14.18h-1.36Z"/>
    <path class="st0" d="M466.86,479.74c-.75,0-1.4-.12-1.96-.37-.55-.25-.98-.59-1.27-1.03-.29-.44-.44-.95-.44-1.52,0-.52.12-1,.37-1.42.25-.43.66-.77,1.22-1.03.57-.26,1.33-.39,2.28-.39h3.46v1.01h-3.42c-.97,0-1.64.17-2.02.52-.38.34-.56.77-.56,1.28,0,.57.22,1.03.67,1.38.45.34,1.07.52,1.87.52s1.42-.18,1.98-.53c.55-.35.96-.86,1.21-1.52l.31.94c-.25.66-.7,1.19-1.33,1.59-.63.4-1.42.59-2.38.59ZM470.32,479.65v-2.22l-.06-.36v-3.71c0-.85-.24-1.51-.72-1.97s-1.19-.69-2.13-.69c-.65,0-1.27.11-1.85.32-.59.22-1.08.5-1.49.86l-.61-1.01c.51-.43,1.12-.77,1.83-1,.71-.24,1.46-.35,2.25-.35,1.3,0,2.3.32,3.01.96s1.06,1.62,1.06,2.93v6.23h-1.3Z"/>
    <path class="st0" d="M473.74,470.74v-1.13h6.21v1.13h-6.21ZM478.48,479.74c-.94,0-1.67-.25-2.18-.76-.51-.51-.76-1.23-.76-2.16v-9.42h1.36v9.34c0,.58.15,1.04.45,1.36.3.32.73.48,1.29.48.6,0,1.1-.17,1.49-.52l.48.98c-.27.24-.59.42-.96.53-.38.12-.76.17-1.16.17Z"/>
    <path class="st0" d="M486.96,479.74c-1.04,0-1.96-.22-2.75-.66-.79-.44-1.41-1.04-1.85-1.82-.45-.77-.67-1.65-.67-2.65s.21-1.87.64-2.64c.43-.76,1.01-1.37,1.76-1.81.75-.44,1.58-.66,2.51-.66s1.78.21,2.51.64c.73.43,1.31,1.03,1.73,1.8.42.77.63,1.66.63,2.67,0,.06,0,.13,0,.2,0,.07-.01.14-.01.22h-8.73v-1.01h8.01l-.54.4c0-.73-.16-1.37-.47-1.94-.31-.57-.74-1.01-1.27-1.33-.53-.32-1.15-.48-1.85-.48s-1.31.16-1.85.48-.97.76-1.28,1.34c-.31.57-.46,1.23-.46,1.97v.21c0,.76.17,1.44.51,2.02s.81,1.03,1.41,1.36c.6.32,1.3.49,2.07.49.61,0,1.18-.11,1.71-.32s.98-.55,1.37-.99l.76.88c-.45.54-1,.94-1.67,1.22-.67.28-1.4.42-2.21.42Z"/>
  </g>
</svg>