<?xml version="1.0" encoding="UTF-8"?>
<svg id="katman_1" data-name="katman 1" xmlns="http://www.w3.org/2000/svg" viewBox="0 0 1920 1080">
  <defs>
    <style>
      .cls-1, .cls-2 {
        stroke: #000;
        stroke-miterlimit: 10;
      }

      .cls-2 {
        fill: none;
        stroke-width: 17px;
      }
    </style>
  </defs>
  <path class="cls-2" d="M809.56,341.28h-198.72v198.72c0,109.75,88.97,198.72,198.72,198.72h0c109.75,0,198.72-88.97,198.72-198.72h0c0-109.75-88.97-198.72-198.72-198.72Z"/>
  <g>
    <path class="cls-1" d="M1114.9,429.89c0,4.09-1.12,7.76-3.35,11-2.24,3.24-5.15,5.43-8.74,6.56,2.27.94,4.08,2.55,5.43,4.82,1.35,2.27,2.03,4.79,2.03,7.56,0,.94-.28,2.8-.85,5.57-2.46,11.46-10.39,17.19-23.8,17.19h-21.06c-1.32,0-1.98-.44-1.98-1.32,0-.5.09-1.13.28-1.89l13.22-62.14c.13-.76.36-1.26.71-1.51.34-.25.9-.38,1.65-.38h16.91c6.11,0,10.89,1.29,14.36,3.87,3.46,2.58,5.19,6.14,5.19,10.67ZM1076.55,450.39l-5.48,25.69h14.54c8.25,0,13.38-3.34,15.39-10.01.31-1.07.58-2.2.8-3.4.22-1.2.33-2.2.33-3.02,0-2.9-.94-5.16-2.83-6.8-1.89-1.64-4.47-2.46-7.74-2.46h-15.02ZM1095.35,421.86h-12.75l-4.63,22.01h14.92c4.47,0,7.93-1.21,10.39-3.64,2.46-2.42,3.68-5.78,3.68-10.06,0-2.64-1.01-4.69-3.02-6.14-2.02-1.45-4.88-2.17-8.59-2.17Z"/>
    <path class="cls-1" d="M1112.16,480.23l9.63-45.24c.13-.76.36-1.26.71-1.51.35-.25.9-.38,1.65-.38h3.4c1.13,0,1.7.44,1.7,1.32,0,.38-.03.72-.09,1.04l-9.63,45.24c-.13.76-.35,1.26-.66,1.51-.32.25-.88.38-1.7.38h-3.4c-1.13,0-1.7-.44-1.7-1.32,0-.38.03-.72.09-1.04ZM1129.54,414.4c2.96,0,4.44,1.32,4.44,3.97,0,.13-.02.32-.05.57-.03.25-.08.54-.14.85-.75,3.02-2.58,4.53-5.48,4.53s-4.44-1.32-4.44-3.97c0-.31.06-.79.19-1.42.76-3.02,2.58-4.53,5.48-4.53Z"/>
    <path class="cls-1" d="M1144.74,436.22l-1.04,5.01c3.34-5.41,8.28-8.12,14.83-8.12,1.01,0,1.7.11,2.08.33.38.22.57.58.57,1.09s-.09,1.1-.28,1.79l-.47,2.08c-.19.76-.41,1.26-.66,1.51-.25.25-.72.38-1.42.38h-1.79c-8.38,0-13.7,5.48-15.96,16.43l-5.1,23.99c-.13.76-.35,1.26-.66,1.51-.32.25-.88.38-1.7.38h-3.21c-1.26,0-1.89-.41-1.89-1.23,0-.31.09-.94.28-1.89l9.44-44.48c.13-.76.36-1.26.71-1.51.35-.25.9-.38,1.65-.38h2.93c1.32,0,1.98.44,1.98,1.32,0,.13-.03.39-.09.8-.06.41-.13.74-.19.99Z"/>
    <path class="cls-1" d="M1062.01,567.11l9.63-45.24c.13-.76.36-1.26.71-1.51.35-.25.9-.38,1.65-.38h3.4c1.13,0,1.7.44,1.7,1.32,0,.38-.03.72-.09,1.04l-9.63,45.24c-.13.75-.35,1.26-.66,1.51-.32.25-.88.38-1.7.38h-3.4c-1.13,0-1.7-.44-1.7-1.32,0-.38.03-.72.09-1.04ZM1079.39,501.28c2.96,0,4.44,1.32,4.44,3.97,0,.13-.02.32-.05.57-.03.25-.08.54-.14.85-.75,3.02-2.58,4.53-5.48,4.53s-4.44-1.32-4.44-3.97c0-.31.06-.79.19-1.42.76-3.02,2.58-4.53,5.48-4.53Z"/>
    <path class="cls-1" d="M1077.03,558.42c0-.88.14-1.5.43-1.84.28-.35.8-.52,1.56-.52h3.4c.69,0,1.16.11,1.42.33.25.22.41.68.47,1.37.57,4.72,4.19,7.08,10.86,7.08,3.21,0,5.73-.76,7.56-2.27,1.83-1.51,2.74-3.59,2.74-6.23,0-1.38-.24-2.55-.71-3.49-.47-.94-1.34-1.86-2.6-2.74-1.26-.88-3.09-1.86-5.48-2.93l-5.48-2.55c-5.23-2.46-7.84-6.17-7.84-11.14,0-4.47,1.68-8.06,5.05-10.77,3.37-2.71,7.76-4.06,13.17-4.06,5.04,0,9.11,1.12,12.23,3.35,3.12,2.24,4.68,5.18,4.68,8.83,0,.88-.14,1.5-.43,1.84-.28.35-.8.52-1.56.52h-3.4c-.63,0-1.07-.11-1.32-.33-.25-.22-.44-.68-.57-1.37-.25-2.14-1.28-3.83-3.07-5.05-1.79-1.23-4.17-1.84-7.13-1.84-3.21,0-5.73.74-7.56,2.22-1.83,1.48-2.74,3.51-2.74,6.09,0,1.57.46,2.87,1.37,3.87.91,1.01,2.69,2.14,5.34,3.4l5.48,2.55c3.59,1.64,6.2,3.49,7.84,5.57,1.64,2.08,2.46,4.5,2.46,7.27,0,4.6-1.65,8.28-4.96,11.05-3.3,2.77-7.76,4.16-13.36,4.16s-9.74-1.12-12.99-3.35c-3.24-2.23-4.86-5.24-4.86-9.02ZM1093.08,566.35h6.71l-.76,6.89c-.25,2.46-.69,4.71-1.32,6.75-.63,2.05-1.73,3.7-3.31,4.96-1.57,1.26-3.97,1.89-7.18,1.89h-6.71c-.82,0-1.23-.25-1.23-.76,0-.13.02-.28.05-.47.03-.19.08-.41.14-.66l.47-2.46c.13-.76.31-1.26.57-1.51.25-.25.69-.38,1.32-.38h5.67c1.38,0,2.38-.25,2.98-.76.6-.5,1.02-1.45,1.27-2.83.13-.57.28-1.5.47-2.79.19-1.29.31-2.47.38-3.54l.47-4.34Z"/>
    <path class="cls-1" d="M1137.66,505.34l-13.22,62.24c-.13.75-.35,1.26-.66,1.51-.32.25-.88.38-1.7.38h-3.12c-1.32,0-1.98-.44-1.98-1.32,0-.19.09-.79.28-1.79l13.22-62.24c.12-.76.36-1.26.71-1.51.34-.25.9-.38,1.65-.38h3.12c1.32,0,1.98.44,1.98,1.32,0,.44-.09,1.04-.28,1.79Z"/>
    <path class="cls-1" d="M1156.26,546.99h-13.51l-.38,1.89c-.44,2.21-.66,4-.66,5.38,0,6.74,3.27,10.11,9.82,10.11,5.98,0,9.76-2.05,11.33-6.14.25-.69.55-1.13.9-1.32.34-.19.93-.28,1.75-.28h3.02c1.32,0,1.98.41,1.98,1.23,0,1.51-.5,3.07-1.51,4.67-1.01,1.61-2.36,3.04-4.06,4.3-3.53,2.64-8,3.97-13.41,3.97s-9.78-1.38-12.7-4.16c-2.93-2.77-4.39-6.8-4.39-12.09,0-.88.06-1.84.19-2.88.13-1.04.35-2.5.66-4.39l.94-5.01c2.96-15.74,10.77-23.61,23.42-23.61,5.1,0,9.05,1.12,11.85,3.35,2.8,2.24,4.2,5.37,4.2,9.4,0,5.04-1.65,8.89-4.96,11.57-3.31,2.68-8.14,4.01-14.5,4.01ZM1159.19,524.51c-8.06,0-13.13,5.45-15.21,16.34h13.5c3.53,0,6.26-.82,8.22-2.46,1.95-1.64,2.93-3.93,2.93-6.89,0-2.27-.82-4-2.46-5.19-1.64-1.2-3.97-1.79-6.99-1.79Z"/>
    <path class="cls-1" d="M1197.53,508.93l-2.36,11.05h9.07c1.13,0,1.7.41,1.7,1.23,0,.13-.02.28-.05.47-.03.19-.08.41-.14.66l-.47,1.98c-.19.76-.41,1.26-.66,1.51-.25.25-.69.38-1.32.38h-9.44l-6.23,29.28c-.25,1.01-.38,1.98-.38,2.93,0,2.96,1.73,4.44,5.19,4.44h5.1c.88,0,1.32.32,1.32.94,0,.38-.03.69-.09.94l-.57,2.83c-.19.82-.54,1.34-1.04,1.56-.5.22-1.64.33-3.4.33h-1.32c-4.16,0-7.29-.79-9.4-2.36-2.11-1.57-3.2-4.09-3.26-7.56,0-1.64.22-3.43.66-5.38l5.95-27.96h-5.57c-1.13,0-1.7-.41-1.7-1.23,0-.13.01-.28.05-.47.03-.19.08-.41.14-.66l.47-1.98c.19-.76.41-1.26.66-1.51.25-.25.69-.38,1.32-.38h5.95l2.55-11.99c.12-.76.36-1.26.71-1.51.35-.25.9-.38,1.65-.38h3.02c.69,0,1.21.06,1.56.19.35.13.52.54.52,1.23,0,.19-.02.39-.05.61-.03.22-.08.49-.14.8Z"/>
    <path class="cls-1" d="M1244.94,538.87l-6.04,28.71c-.13.75-.35,1.26-.66,1.51-.32.25-.88.38-1.7.38h-3.12c-1.32,0-1.98-.44-1.98-1.32,0-.44.09-1.07.28-1.89l6.23-29.37c.13-.69.24-1.37.33-2.03.09-.66.14-1.28.14-1.84,0-5.16-2.74-7.74-8.22-7.74-3.4,0-6.41,1.27-9.02,3.83-2.61,2.55-4.36,5.87-5.24,9.96l-6.04,28.52c-.13.75-.35,1.26-.66,1.51-.32.25-.88.38-1.7.38h-3.12c-1.32,0-1.98-.44-1.98-1.32,0-.38.09-.98.28-1.79l9.44-44.48c.13-.76.36-1.26.71-1.51.35-.25.9-.38,1.65-.38h2.83c1.38,0,2.08.44,2.08,1.32,0,.13-.02.28-.05.47-.03.19-.08.41-.14.66l-.66,2.64c1.95-2.01,4.08-3.59,6.38-4.72,2.3-1.13,4.68-1.7,7.13-1.7,3.21,0,5.95.71,8.22,2.12,2.27,1.42,3.84,3.42,4.72,6,4.41-5.41,9.76-8.12,16.06-8.12,4.28,0,7.65,1.23,10.11,3.68,2.46,2.46,3.68,5.73,3.68,9.82,0,1.57-.19,3.21-.57,4.91l-6.42,30.51c-.13.75-.35,1.26-.66,1.51-.32.25-.88.38-1.7.38h-3.12c-1.32,0-1.98-.44-1.98-1.32,0-.38.09-.98.28-1.79l6.23-29.47c.25-1.2.38-2.39.38-3.59,0-2.58-.69-4.56-2.08-5.95-1.39-1.38-3.4-2.08-6.04-2.08-3.46,0-6.49,1.23-9.07,3.68-2.58,2.46-4.31,5.76-5.19,9.92Z"/>
    <path class="cls-1" d="M1299.15,546.99h-13.51l-.38,1.89c-.44,2.21-.66,4-.66,5.38,0,6.74,3.27,10.11,9.82,10.11,5.98,0,9.76-2.05,11.33-6.14.25-.69.55-1.13.9-1.32.34-.19.93-.28,1.75-.28h3.02c1.32,0,1.98.41,1.98,1.23,0,1.51-.5,3.07-1.51,4.67-1.01,1.61-2.36,3.04-4.06,4.3-3.53,2.64-8,3.97-13.41,3.97s-9.78-1.38-12.7-4.16c-2.93-2.77-4.39-6.8-4.39-12.09,0-.88.06-1.84.19-2.88.13-1.04.35-2.5.66-4.39l.94-5.01c2.96-15.74,10.77-23.61,23.42-23.61,5.1,0,9.05,1.12,11.85,3.35,2.8,2.24,4.2,5.37,4.2,9.4,0,5.04-1.65,8.89-4.96,11.57-3.31,2.68-8.14,4.01-14.5,4.01ZM1302.08,524.51c-8.06,0-13.13,5.45-15.21,16.34h13.5c3.53,0,6.26-.82,8.22-2.46,1.95-1.64,2.93-3.93,2.93-6.89,0-2.27-.82-4-2.46-5.19-1.64-1.2-3.97-1.79-6.99-1.79Z"/>
    <path class="cls-1" d="M1061.06,645.3c0-.88.14-1.5.43-1.84.28-.35.8-.52,1.56-.52h3.4c.69,0,1.16.11,1.42.33.25.22.41.68.47,1.37.57,4.72,4.19,7.08,10.86,7.08,3.21,0,5.73-.76,7.56-2.27,1.83-1.51,2.74-3.59,2.74-6.23,0-1.38-.24-2.55-.71-3.49-.47-.94-1.34-1.86-2.6-2.74-1.26-.88-3.09-1.86-5.48-2.93l-5.48-2.55c-5.23-2.46-7.84-6.17-7.84-11.14,0-4.47,1.68-8.06,5.05-10.77,3.37-2.71,7.76-4.06,13.17-4.06,5.04,0,9.11,1.12,12.23,3.35,3.12,2.24,4.68,5.18,4.68,8.83,0,.88-.14,1.5-.43,1.84-.28.35-.8.52-1.56.52h-3.4c-.63,0-1.07-.11-1.32-.33-.25-.22-.44-.68-.57-1.37-.25-2.14-1.28-3.83-3.07-5.05-1.79-1.23-4.17-1.84-7.13-1.84-3.21,0-5.73.74-7.56,2.22-1.83,1.48-2.74,3.51-2.74,6.09,0,1.57.46,2.87,1.37,3.87.91,1.01,2.69,2.14,5.34,3.4l5.48,2.55c3.59,1.64,6.2,3.49,7.84,5.57,1.64,2.08,2.46,4.5,2.46,7.27,0,4.6-1.65,8.28-4.96,11.05-3.3,2.77-7.76,4.16-13.36,4.16s-9.74-1.12-12.99-3.35c-3.24-2.23-4.86-5.24-4.86-9.02Z"/>
    <path class="cls-1" d="M1101.11,653.99l9.63-45.24c.13-.76.36-1.26.71-1.51.35-.25.9-.38,1.65-.38h3.4c1.13,0,1.7.44,1.7,1.32,0,.38-.03.72-.09,1.04l-9.63,45.24c-.13.75-.35,1.26-.66,1.51-.32.25-.88.38-1.7.38h-3.4c-1.13,0-1.7-.44-1.7-1.32,0-.38.03-.72.09-1.04ZM1118.49,588.16c2.96,0,4.44,1.32,4.44,3.97,0,.13-.02.32-.05.57-.03.25-.08.54-.14.85-.75,3.02-2.58,4.53-5.48,4.53s-4.44-1.32-4.44-3.97c0-.31.06-.79.19-1.42.76-3.02,2.58-4.53,5.48-4.53Z"/>
    <path class="cls-1" d="M1116.12,645.3c0-.88.14-1.5.43-1.84.28-.35.8-.52,1.56-.52h3.4c.69,0,1.16.11,1.42.33.25.22.41.68.47,1.37.57,4.72,4.19,7.08,10.86,7.08,3.21,0,5.73-.76,7.56-2.27,1.83-1.51,2.74-3.59,2.74-6.23,0-1.38-.24-2.55-.71-3.49-.47-.94-1.34-1.86-2.6-2.74-1.26-.88-3.09-1.86-5.48-2.93l-5.48-2.55c-5.23-2.46-7.84-6.17-7.84-11.14,0-4.47,1.68-8.06,5.05-10.77,3.37-2.71,7.76-4.06,13.17-4.06,5.04,0,9.11,1.12,12.23,3.35,3.12,2.24,4.68,5.18,4.68,8.83,0,.88-.14,1.5-.43,1.84-.28.35-.8.52-1.56.52h-3.4c-.63,0-1.07-.11-1.32-.33-.25-.22-.44-.68-.57-1.37-.25-2.14-1.28-3.83-3.07-5.05-1.79-1.23-4.17-1.84-7.13-1.84-3.21,0-5.73.74-7.56,2.22-1.83,1.48-2.74,3.51-2.74,6.09,0,1.57.46,2.87,1.37,3.87.91,1.01,2.69,2.14,5.34,3.4l5.48,2.55c3.59,1.64,6.2,3.49,7.84,5.57,1.64,2.08,2.46,4.5,2.46,7.27,0,4.6-1.65,8.28-4.96,11.05-3.3,2.77-7.76,4.16-13.36,4.16s-9.74-1.12-12.99-3.35c-3.24-2.23-4.86-5.24-4.86-9.02Z"/>
    <path class="cls-1" d="M1179.02,595.81l-2.36,11.05h9.07c1.13,0,1.7.41,1.7,1.23,0,.13-.02.28-.05.47-.03.19-.08.41-.14.66l-.47,1.98c-.19.76-.41,1.26-.66,1.51-.25.25-.69.38-1.32.38h-9.44l-6.23,29.28c-.25,1.01-.38,1.98-.38,2.93,0,2.96,1.73,4.44,5.19,4.44h5.1c.88,0,1.32.32,1.32.94,0,.38-.03.69-.09.94l-.57,2.83c-.19.82-.54,1.34-1.04,1.56-.5.22-1.64.33-3.4.33h-1.32c-4.16,0-7.29-.79-9.4-2.36-2.11-1.57-3.2-4.09-3.26-7.56,0-1.64.22-3.43.66-5.38l5.95-27.96h-5.57c-1.13,0-1.7-.41-1.7-1.23,0-.12.01-.28.05-.47.03-.19.08-.41.14-.66l.47-1.98c.19-.76.41-1.26.66-1.51.25-.25.69-.38,1.32-.38h5.95l2.55-11.99c.12-.76.36-1.26.71-1.51.35-.25.9-.38,1.65-.38h3.02c.69,0,1.21.06,1.56.19.35.13.52.54.52,1.23,0,.19-.02.39-.05.61-.03.22-.08.49-.14.8Z"/>
    <path class="cls-1" d="M1206.03,633.87h-13.51l-.38,1.89c-.44,2.21-.66,4-.66,5.38,0,6.74,3.27,10.11,9.82,10.11,5.98,0,9.76-2.05,11.33-6.14.25-.69.55-1.13.9-1.32.34-.19.93-.28,1.75-.28h3.02c1.32,0,1.98.41,1.98,1.23,0,1.51-.5,3.07-1.51,4.67-1.01,1.61-2.36,3.04-4.06,4.3-3.53,2.64-8,3.97-13.41,3.97s-9.78-1.38-12.7-4.16c-2.93-2.77-4.39-6.8-4.39-12.09,0-.88.06-1.84.19-2.88.13-1.04.35-2.5.66-4.39l.94-5.01c2.96-15.74,10.77-23.61,23.42-23.61,5.1,0,9.05,1.12,11.85,3.35,2.8,2.24,4.2,5.37,4.2,9.4,0,5.04-1.65,8.89-4.96,11.57-3.31,2.68-8.14,4.01-14.5,4.01ZM1208.96,611.39c-8.06,0-13.13,5.45-15.21,16.34h13.5c3.53,0,6.26-.82,8.22-2.46,1.95-1.64,2.93-3.93,2.93-6.89,0-2.27-.82-4-2.46-5.19-1.64-1.2-3.97-1.79-6.99-1.79Z"/>
    <path class="cls-1" d="M1266.86,625.75l-6.04,28.71c-.13.75-.35,1.26-.66,1.51-.32.25-.88.38-1.7.38h-3.12c-1.32,0-1.98-.44-1.98-1.32,0-.44.09-1.07.28-1.89l6.23-29.37c.13-.69.24-1.37.33-2.03.09-.66.14-1.27.14-1.84,0-5.16-2.74-7.74-8.22-7.74-3.4,0-6.41,1.28-9.02,3.83-2.61,2.55-4.36,5.87-5.24,9.96l-6.04,28.52c-.13.75-.35,1.26-.66,1.51-.32.25-.88.38-1.7.38h-3.12c-1.32,0-1.98-.44-1.98-1.32,0-.38.09-.98.28-1.79l9.44-44.48c.13-.76.36-1.26.71-1.51.35-.25.9-.38,1.65-.38h2.83c1.38,0,2.08.44,2.08,1.32,0,.13-.02.28-.05.47-.03.19-.08.41-.14.66l-.66,2.64c1.95-2.01,4.08-3.59,6.38-4.72,2.3-1.13,4.68-1.7,7.13-1.7,3.21,0,5.95.71,8.22,2.12,2.27,1.42,3.84,3.42,4.72,6,4.41-5.41,9.76-8.12,16.06-8.12,4.28,0,7.65,1.23,10.11,3.68,2.46,2.46,3.68,5.73,3.68,9.82,0,1.57-.19,3.21-.57,4.91l-6.42,30.51c-.13.75-.35,1.26-.66,1.51-.32.25-.88.38-1.7.38h-3.12c-1.32,0-1.98-.44-1.98-1.32,0-.38.09-.98.28-1.79l6.23-29.47c.25-1.2.38-2.39.38-3.59,0-2.58-.69-4.56-2.08-5.95-1.39-1.38-3.4-2.08-6.04-2.08-3.46,0-6.49,1.23-9.07,3.68-2.58,2.46-4.31,5.76-5.19,9.92Z"/>
    <path class="cls-1" d="M1297.74,653.99l9.63-45.24c.13-.76.36-1.26.71-1.51.35-.25.9-.38,1.65-.38h3.4c1.13,0,1.7.44,1.7,1.32,0,.38-.03.72-.09,1.04l-9.63,45.24c-.13.75-.35,1.26-.66,1.51-.32.25-.88.38-1.7.38h-3.4c-1.13,0-1.7-.44-1.7-1.32,0-.38.03-.72.09-1.04ZM1315.12,588.16c2.96,0,4.44,1.32,4.44,3.97,0,.13-.02.32-.05.57-.03.25-.08.54-.14.85-.75,3.02-2.58,4.53-5.48,4.53s-4.44-1.32-4.44-3.97c0-.31.06-.79.19-1.42.76-3.02,2.58-4.53,5.48-4.53Z"/>
    <path class="cls-1" d="M1319.84,645.01c3.46,0,5.19,1.57,5.19,4.72,0,.76-.09,1.61-.28,2.55-.88,3.59-3.02,5.38-6.42,5.38s-5.19-1.57-5.19-4.72c0-.75.09-1.61.28-2.55.88-3.59,3.02-5.38,6.42-5.38Z"/>
  </g>
  <g>
    <path d="M1205.55,689.16c-1.16-1.16-2.54-2.09-4.11-2.77-1.57-.68-3.27-1.02-5.04-1.02s-3.48.34-5.05,1.02c-1.56.68-2.95,1.61-4.12,2.77-1.17,1.16-2.11,2.55-2.79,4.12-.68,1.58-1.02,3.28-1.02,5.08v18.94c0,.66.23,1.23.69,1.7.46.46,1.02.69,1.67.69s1.25-.25,1.67-.72c.41-.46.62-1.02.62-1.67v-9.04c.92.77,1.95,1.41,3.07,1.92,1.61.72,3.38,1.09,5.24,1.09s3.48-.34,5.05-1.02c1.56-.67,2.94-1.61,4.11-2.77,1.16-1.16,2.09-2.54,2.76-4.09.67-1.56,1.01-3.25,1.01-5.03s-.34-3.5-1.01-5.07c-.67-1.57-1.6-2.96-2.76-4.12ZM1196.38,690.08c1.16,0,2.25.22,3.25.65,1,.43,1.89,1.03,2.63,1.77.74.74,1.33,1.63,1.76,2.64.42,1,.64,2.09.64,3.22s-.22,2.18-.64,3.18c-.43,1-1.02,1.89-1.76,2.64-.74.75-1.63,1.35-2.63,1.78-.99.43-2.09.65-3.25.65s-2.24-.22-3.24-.65c-1.01-.43-1.89-1.03-2.64-1.78-.74-.75-1.34-1.64-1.78-2.64-.43-.99-.65-2.06-.65-3.17s.22-2.21.65-3.21c.43-1.01,1.03-1.9,1.77-2.64.74-.74,1.63-1.34,2.64-1.77,1-.43,2.09-.65,3.24-.65Z"/>
    <path d="M1215.05,677.93c-.75,0-1.39.26-1.9.77s-.77,1.15-.77,1.9.26,1.36.77,1.88c.51.52,1.15.79,1.9.79s1.39-.26,1.91-.78c.52-.52.78-1.15.78-1.88s-.26-1.39-.79-1.9c-.52-.51-1.16-.77-1.9-.77Z"/>
    <path d="M1215.04,685.37c-.64,0-1.2.23-1.66.68-.46.45-.7,1.02-.7,1.69v21.01c0,.65.23,1.21.7,1.66.46.45,1.02.68,1.66.68s1.17-.23,1.63-.68c.45-.45.68-1.01.68-1.66v-21.01c0-.66-.22-1.22-.64-1.67-.43-.46-1-.7-1.66-.7Z"/>
    <path d="M1236.37,698.03l8.5-8.67c.46-.51.7-1.07.7-1.67s-.23-1.16-.7-1.62c-.46-.46-1.01-.69-1.62-.69-.66,0-1.24.24-1.73.73l-8.41,8.6-8.44-8.63c-.48-.48-1.05-.72-1.7-.72-.31,0-.61.07-.9.2-.27.12-.52.3-.73.51-.22.22-.39.47-.51.75-.13.29-.19.6-.19.91,0,.61.23,1.16.69,1.62l8.53,8.7-8.8,9.02c-.21.23-.38.47-.5.73-.15.29-.22.61-.22.95,0,.32.07.62.2.9.13.26.3.5.52.71.22.21.47.37.74.48.28.12.58.18.88.18.69,0,1.27-.25,1.73-.73l8.72-8.91,8.76,8.92c.42.45.99.68,1.63.68.58,0,1.12-.21,1.58-.63.48-.43.73-1,.73-1.66s-.23-1.23-.69-1.69l-8.76-8.95Z"/>
    <path d="M1270.63,689.16c-1.16-1.16-2.54-2.09-4.11-2.77-1.57-.68-3.27-1.02-5.04-1.02s-3.47.34-5.05,1.02c-1.56.68-2.95,1.61-4.12,2.77-1.17,1.16-2.11,2.55-2.78,4.12-.68,1.58-1.02,3.29-1.02,5.08v18.94c0,.66.23,1.24.7,1.7.46.46,1.02.69,1.67.69s1.25-.25,1.67-.72c.41-.46.62-1.02.62-1.67v-9.04c.92.77,1.95,1.41,3.07,1.92,1.61.72,3.38,1.09,5.24,1.09s3.48-.34,5.05-1.02c1.56-.67,2.94-1.61,4.11-2.77,1.16-1.16,2.09-2.54,2.76-4.09.67-1.56,1.01-3.25,1.01-5.03s-.34-3.5-1.01-5.07c-.67-1.57-1.6-2.96-2.76-4.12ZM1261.46,690.08c1.16,0,2.25.22,3.25.65,1,.43,1.89,1.03,2.63,1.77.74.74,1.33,1.63,1.76,2.64.42,1,.64,2.09.64,3.22s-.22,2.18-.64,3.18c-.43,1-1.02,1.89-1.76,2.64-.74.75-1.63,1.35-2.63,1.78-.99.43-2.09.65-3.25.65s-2.24-.22-3.24-.65c-1.01-.43-1.89-1.03-2.64-1.78-.74-.75-1.34-1.64-1.78-2.64-.43-.99-.65-2.06-.65-3.17s.22-2.21.65-3.21c.43-1.01,1.03-1.9,1.77-2.64.74-.74,1.63-1.34,2.64-1.77,1-.43,2.09-.65,3.24-.65Z"/>
    <path d="M1298.41,689.18c-1.16-1.17-2.54-2.11-4.1-2.78-1.57-.68-3.27-1.02-5.07-1.02s-3.47.34-5.03,1.02c-1.55.68-2.93,1.61-4.1,2.76-1.17,1.16-2.11,2.55-2.78,4.12-.68,1.58-1.02,3.28-1.02,5.08s.34,3.47,1.02,5.03c.68,1.55,1.61,2.93,2.78,4.09,1.17,1.16,2.55,2.09,4.1,2.76,1.56.68,3.25,1.02,5.03,1.02s3.5-.34,5.07-1.02c1.56-.68,2.94-1.61,4.1-2.77,1.16-1.16,2.09-2.54,2.76-4.09.67-1.56,1.01-3.25,1.01-5.03s-.34-3.49-1.01-5.06c-.67-1.56-1.59-2.95-2.75-4.12ZM1289.24,706.61c-1.15,0-2.23-.22-3.22-.65-1-.43-1.88-1.03-2.63-1.78-.74-.75-1.34-1.64-1.78-2.64-.43-.99-.65-2.06-.65-3.17s.22-2.21.65-3.21c.43-1.01,1.03-1.9,1.77-2.64.74-.74,1.63-1.34,2.63-1.77.99-.43,2.08-.65,3.22-.65s2.26.22,3.26.65c1.01.43,1.89,1.03,2.62,1.77.73.74,1.32,1.63,1.75,2.64.42,1,.64,2.09.64,3.22s-.22,2.18-.64,3.18c-.43,1-1.02,1.89-1.75,2.64-.73.75-1.62,1.35-2.62,1.78-1,.43-2.1.65-3.26.65Z"/>
    <path d="M1324.58,700.3c-.38-.92-.92-1.74-1.61-2.44-.68-.7-1.5-1.26-2.42-1.66-.93-.4-1.94-.61-3.02-.61h-5.26c-.38,0-.72-.07-1.05-.22-.34-.15-.63-.36-.89-.61-.25-.25-.45-.54-.59-.88-.14-.33-.21-.68-.21-1.07,0-.35.07-.68.21-1.02.14-.34.34-.64.59-.89.25-.25.54-.46.88-.62.33-.15.67-.23,1.07-.23h9.21c.64,0,1.19-.22,1.64-.64.46-.44.7-1.02.7-1.74,0-.89-.39-1.41-.72-1.69-.45-.39-.99-.58-1.62-.58h-9.18c-1.02,0-2,.2-2.9.58-.89.38-1.68.91-2.35,1.57-.67.66-1.2,1.44-1.59,2.31-.39.88-.58,1.84-.58,2.85s.19,2,.57,2.9c.37.9.9,1.7,1.55,2.39.66.69,1.45,1.24,2.36,1.64.91.4,1.9.61,2.95.61h4.93c.44.01.86.09,1.27.23.39.13.74.33,1.04.57.29.25.52.54.7.9.17.34.26.75.26,1.22s-.09.92-.27,1.28c-.19.38-.44.72-.75,1-.31.28-.66.49-1.04.64-.39.15-.78.22-1.16.22h-10.64c-.63,0-1.17.23-1.59.65-.42.43-.63.98-.63,1.64s.21,1.24.61,1.68c.42.45.97.69,1.6.69h10.94c1.08,0,2.09-.21,3.02-.62.92-.41,1.73-.98,2.4-1.68.66-.7,1.2-1.52,1.58-2.45.38-.93.58-1.93.58-2.96s-.19-2.03-.58-2.95Z"/>
  </g>
</svg>